Coordinates
version=1
nRows=53
nColumns=11
inDegrees=yes

Units are S.I. units (second, meters, Newtons, ...)
If the header above contains a line with 'inDegrees', this indicates whether rotational values are in degrees (yes) or radians (no).

endheader
time	pelvis_tilt	pelvis_tx	pelvis_ty	hip_flexion_l	hip_flexion_r	knee_angle_l	knee_angle_r	ankle_angle_l	ankle_angle_r	lumbar_extension
      1.07000000	      4.07134795	     -1.35827079	      0.88633077	     -6.00138531	     22.45807347	    -33.88612279	    -13.02027239	     23.27730767	     -6.57639051	     -9.95650605
      1.08000000	      3.89998322	     -1.34501294	      0.88455898	     -6.21216402	     22.59652244	    -34.79141656	    -13.08848081	     22.55174230	     -6.59846448	     -9.39078261
      1.09000000	      3.80435028	     -1.33161741	      0.88317922	     -6.41941200	     22.57038877	    -35.75267932	    -13.38881724	     21.41532910	     -6.86034812	     -8.89889495
      1.10000000	      3.74953513	     -1.31774152	      0.88185256	     -6.60897022	     22.33963338	    -36.88380953	    -13.92290995	     20.13898458	     -6.75820850	     -8.38274040
      1.11000000	      3.73505597	     -1.30352304	      0.88070523	     -6.77543254	     21.94929908	    -38.11481944	    -14.54397381	     18.50406897	     -7.28523369	     -7.90186659
      1.12000000	      3.32613542	     -1.28991160	      0.87965764	     -6.25780935	     22.15980020	    -39.60822413	    -15.68535759	     16.45051068	     -9.06948872	     -7.04047978
      1.13000000	      2.87671427	     -1.27646164	      0.87870011	     -5.50543605	     23.14386144	    -41.36198730	    -18.35941793	     14.15336134	     -7.84762676	     -6.17008667
      1.14000000	      2.44042805	     -1.26318721	      0.87815763	     -4.56443258	     24.24234126	    -43.23249600	    -21.10060992	     11.29031112	     -6.93443248	     -5.34587862
      1.15000000	      2.27925384	     -1.24967298	      0.87809541	     -3.80203597	     24.78276460	    -45.07142208	    -23.43916718	      8.13218152	     -6.41111245	     -4.84194430
      1.16000000	      2.28475018	     -1.23644945	      0.87846769	     -3.08301839	     24.75015665	    -47.08276912	    -25.04990917	      3.66252540	     -5.61790500	     -4.59445957
      1.17000000	      2.24250609	     -1.22309409	      0.87863695	     -2.19680176	     24.57746321	    -49.08980923	    -26.37223352	      0.48530416	     -4.61308730	     -4.28547361
      1.18000000	      2.28185383	     -1.21004885	      0.87904511	     -1.34863642	     24.20430786	    -50.95124005	    -27.49935601	     -3.62438893	     -3.30675471	     -4.11744738
      1.19000000	      2.20650279	     -1.19733968	      0.87931801	     -0.22629536	     23.88844102	    -52.87043709	    -28.44590135	     -7.50176103	     -2.04501513	     -3.89309398
      1.20000000	      2.09337268	     -1.18502768	      0.87962219	      1.06049389	     23.53259411	    -54.78012903	    -29.21923190	    -11.56544077	     -0.92090028	     -3.69106068
      1.21000000	      2.05168706	     -1.17279620	      0.87999420	      2.37821282	     23.09282217	    -56.82327920	    -29.96606034	    -15.75843705	      0.30673249	     -3.59134247
      1.22000000	      1.76346469	     -1.16111297	      0.88004262	      4.10997662	     22.84605163	    -59.02277239	    -30.56677823	    -18.87139304	      1.45485946	     -3.23494705
      1.23000000	      1.59874437	     -1.14982468	      0.88048972	      5.82053343	     22.42084263	    -61.18914571	    -30.99317758	    -20.40936914	      2.44815698	     -3.06041014
      1.24000000	      1.34974607	     -1.13853382	      0.88099866	      7.63879408	     21.96657894	    -63.19170341	    -31.22088933	    -19.99114366	      3.30441773	     -2.77627735
      1.25000000	      1.14077878	     -1.12719356	      0.88196939	      9.38161757	     21.29531891	    -64.87927606	    -31.11537054	    -18.03132302	      4.20163732	     -2.51705991
      1.26000000	      0.89715954	     -1.11622680	      0.88321873	     11.20087510	     20.54929149	    -66.25308970	    -30.76338053	    -15.82093181	      4.82133682	     -2.24664235
      1.27000000	      0.68150503	     -1.10536849	      0.88480258	     12.95677360	     19.73221334	    -67.34641625	    -30.31999816	    -13.45034108	      5.29558660	     -2.02164470
      1.28000000	      0.44755832	     -1.09469997	      0.88651003	     14.72386000	     18.85595850	    -67.97180350	    -29.68478997	    -11.82003765	      5.66014567	     -1.75070329
      1.29000000	      0.22690300	     -1.08423142	      0.88833664	     16.46659669	     17.91745581	    -68.41399008	    -28.91961234	    -10.50693939	      5.97672332	     -1.52774129
      1.30000000	      0.09998480	     -1.07362623	      0.89038855	     18.03497594	     16.83354084	    -68.54018993	    -28.08195214	     -8.86570895	      6.11446057	     -1.36508356
      1.31000000	      0.03681070	     -1.06329285	      0.89250795	     19.52379319	     15.68691610	    -68.42302211	    -27.21316307	     -7.56738608	      6.26697035	     -1.30919854
      1.32000000	      0.03865545	     -1.05308217	      0.89457093	     20.93595419	     14.51820474	    -68.03201704	    -26.38818960	     -6.72342026	      6.34838814	     -1.35296983
      1.33000000	      0.00061116	     -1.04296346	      0.89650544	     22.30915107	     13.41551485	    -67.55337198	    -25.57594705	     -5.71396411	      6.39454043	     -1.37708596
      1.34000000	      0.08094632	     -1.03301954	      0.89853117	     23.51813484	     12.14458831	    -66.79991504	    -24.65147829	     -5.00981264	      6.22691344	     -1.54756150
      1.35000000	      0.11627162	     -1.02319684	      0.90030331	     24.75306556	     11.02773620	    -65.92815332	    -23.93007518	     -4.06426946	      6.21886301	     -1.67486621
      1.36000000	      0.07045431	     -1.01359249	      0.90178218	     26.02987343	     10.06158389	    -64.88726041	    -23.27635426	     -3.36036791	      6.17101563	     -1.73724894
      1.37000000	     -0.02957403	     -1.00403405	      0.90303161	     27.30998344	      9.21277547	    -63.70759242	    -22.71346654	     -2.62777641	      5.99094671	     -1.75383920
      1.38000000	     -0.10207167	     -0.99464923	      0.90421451	     28.49988737	      8.38643466	    -62.31717535	    -22.27007971	     -2.11659087	      5.80561848	     -1.80403506
      1.39000000	     -0.05916192	     -0.98506518	      0.90545390	     29.44427352	      7.44246640	    -60.73312520	    -21.81224206	     -1.45963039	      5.71900909	     -1.98611294
      1.40000000	     -0.06547074	     -0.97560207	      0.90640440	     30.38812687	      6.65141933	    -58.98324966	    -21.53042664	     -1.14119477	      5.65944188	     -2.10109976
      1.41000000	     -0.07731955	     -0.96624592	      0.90709012	     31.26579095	      5.93574972	    -57.12126712	    -21.34102673	     -0.92905723	      5.50507100	     -2.22976288
      1.42000000	     -0.05285378	     -0.95671747	      0.90766546	     32.00397538	      5.22674906	    -55.07777841	    -21.27917122	     -0.64596449	      5.43666248	     -2.36564465
      1.43000000	     -0.08167669	     -0.94716749	      0.90785117	     32.77109260	      4.67158418	    -53.00609733	    -21.40996108	     -0.57760951	      5.44584268	     -2.42979584
      1.44000000	     -0.00037749	     -0.93764391	      0.90798300	     33.34315700	      3.98536441	    -50.81078926	    -21.49386202	     -0.49302896	      5.37839033	     -2.63992294
      1.45000000	      0.04747004	     -0.92805500	      0.90781433	     33.89820261	      3.39006458	    -48.58947683	    -21.71841735	     -0.50241551	      5.44065481	     -2.78480045
      1.46000000	      0.09939783	     -0.91840397	      0.90739618	     34.35769684	      2.83620528	    -46.24017228	    -22.03661717	     -0.68209410	      5.56105213	     -2.92921606
      1.47000000	      0.17939443	     -0.90883980	      0.90683768	     34.71421938	      2.27446905	    -43.81167516	    -22.35206181	     -1.02990365	      5.63668217	     -3.12175330
      1.48000000	      0.28585886	     -0.89907288	      0.90613674	     34.95474443	      1.69903662	    -41.37061290	    -22.80771566	     -1.29827366	      5.85697126	     -3.29819854
      1.49000000	      0.41140618	     -0.88919809	      0.90532269	     35.07645228	      1.03469369	    -38.86035078	    -23.08836928	     -1.75695153	      5.94328846	     -3.49974424
      1.50000000	      0.57354258	     -0.87928021	      0.90438665	     35.08169105	      0.39625979	    -36.32401301	    -23.56001850	     -2.31316211	      6.20470793	     -3.73151179
      1.51000000	      0.70399066	     -0.86917311	      0.90325259	     35.04425307	     -0.21213549	    -33.75598511	    -24.02878502	     -3.18226297	      6.40444086	     -3.91968665
      1.52000000	      0.85579251	     -0.85902141	      0.90210848	     34.89960487	     -0.83358944	    -31.16374527	    -24.56441541	     -4.19024663	      6.68022655	     -4.12363250
      1.53000000	      0.98709189	     -0.84897974	      0.90085654	     34.73219247	     -1.43589189	    -28.62291734	    -25.01102956	     -5.35693942	      6.79634730	     -4.33423173
      1.54000000	      1.05821613	     -0.83869327	      0.89942947	     34.55611953	     -1.96456432	    -26.14934934	    -25.53299075	     -6.40661571	      6.91620007	     -4.43344389
      1.55000000	      1.15740911	     -0.82839927	      0.89798785	     34.32167250	     -2.49683566	    -23.85919662	    -26.07266511	     -7.20758509	      6.94736068	     -4.58910948
      1.56000000	      1.18477482	     -0.81801451	      0.89630962	     34.15468069	     -2.97988470	    -21.81685032	    -26.60762088	     -7.61971176	      7.04163452	     -4.65080281
      1.57000000	      1.29171964	     -0.80758461	      0.89474790	     33.90302789	     -3.55135438	    -20.06898244	    -27.08263251	     -7.77859844	      7.02829585	     -4.79460643
      1.58000000	      1.39978306	     -0.79700397	      0.89317518	     33.68091803	     -4.15087192	    -18.70988448	    -27.54725283	     -7.67962627	      7.01263465	     -4.94947038
      1.59000000	      1.51708044	     -0.78628400	      0.89160763	     33.48076616	     -4.80884127	    -17.73724676	    -27.94672894	     -7.42766572	      6.95758316	     -5.10563676
